<svg xmlns="http://www.w3.org/2000/svg" xmlns:xlink="http://www.w3.org/1999/xlink" version="1.1" width="256" height="256" viewBox="0 0 256 256" xml:space="preserve">
<g style="stroke: none; stroke-width: 0; stroke-dasharray: none; stroke-linecap: butt; stroke-linejoin: miter; stroke-miterlimit: 10; fill: none; fill-rule: nonzero; opacity: 1;" transform="translate(1.4065934065934016 1.4065934065934016) scale(2.81 2.81)">
	<path d="M 34.844 79.846 c -2.979 0 -5.958 -1.134 -8.225 -3.401 L 3.407 53.231 C 1.21 51.035 0 48.114 0 45.007 c 0 -3.107 1.21 -6.028 3.407 -8.225 l 23.227 -23.227 c 4.526 -4.527 11.9 -4.534 16.435 -0.015 h 0 c 2.204 2.195 3.42 5.118 3.423 8.229 c 0.003 3.111 -1.207 6.037 -3.407 8.236 l -3.37 3.37 l 38.655 0 C 84.782 33.375 90 38.593 90 45.007 c 0 6.414 -5.218 11.632 -11.632 11.632 H 39.713 l 3.355 3.355 c 4.535 4.535 4.535 11.915 0 16.45 C 40.801 78.712 37.823 79.846 34.844 79.846 z M 34.858 12.155 c -2.467 0 -4.934 0.938 -6.811 2.815 L 4.821 38.196 C 3.002 40.016 2 42.434 2 45.007 c 0 2.573 1.002 4.991 2.821 6.811 L 28.033 75.03 c 3.755 3.754 9.866 3.755 13.622 0 c 3.755 -3.756 3.755 -9.866 0 -13.622 l -5.063 -5.063 c -0.286 -0.286 -0.372 -0.716 -0.217 -1.09 s 0.52 -0.617 0.924 -0.617 h 41.069 c 5.311 0 9.632 -4.321 9.632 -9.632 c 0 -5.311 -4.321 -9.632 -9.632 -9.632 l -41.069 0 c -0.404 0 -0.769 -0.244 -0.924 -0.617 s -0.069 -0.804 0.217 -1.09 l 5.077 -5.077 c 1.822 -1.822 2.823 -4.244 2.821 -6.82 c -0.002 -2.576 -1.009 -4.996 -2.833 -6.813 c 0 0 0 0 0 0 C 39.781 13.089 37.319 12.155 34.858 12.155 z" style="stroke: none; stroke-width: 1; stroke-dasharray: none; stroke-linecap: butt; stroke-linejoin: miter; stroke-miterlimit: 10; fill: rgb(0,0,0); fill-rule: nonzero; opacity: 1;" transform=" matrix(1 0 0 1 0 0) " stroke-linecap="round"/>
</g>
</svg>